<svg width="62" height="62" viewBox="0 0 62 62" fill="none" xmlns="http://www.w3.org/2000/svg">
<path d="M36.8215 5.8125L31 11.6366L25.1772 5.8125L0 31L25.1772 56.1875L31 50.3634L36.8215 56.1875L62 31L36.8215 5.8125ZM25.1772 52.3512L3.83496 31L25.1772 9.64746L46.5207 31L42.6172 34.9047L27.0953 19.3763L25.1772 17.4582L23.259 19.3763L19.3815 23.2565L11.6444 31L29.0819 48.4452L25.1772 52.3512ZM40.7017 36.8241L36.8228 40.703L21.3009 25.1759L25.1785 21.2957L40.7017 36.8241ZM32.9155 48.4452L15.478 31L19.3827 27.094L34.9047 42.6224L36.8228 44.5392L38.741 42.6224L48.4401 32.9194L50.3556 31L48.4401 29.0819L32.9181 13.5535L36.8228 9.64746L58.165 31L36.8215 52.3512L32.9155 48.4452Z" fill="#343434"/>
</svg>
