<svg width="128" height="59" viewBox="0 0 128 59" fill="none" xmlns="http://www.w3.org/2000/svg">
<path d="M14.85 45.612C13.014 45.612 11.556 44.154 11.556 42.264V4.464C11.556 2.682 12.636 1.062 14.256 0.413998L14.796 0.197997H0.54C2.43 0.899998 3.672 2.682 3.672 4.68V42.264C3.672 44.262 2.43 46.098 0.54 46.8H27.432L27.702 45.612L29.7 36.864C27.756 42.156 22.734 45.612 17.172 45.612H14.85ZM45.2001 11.646C36.6141 11.646 29.7021 19.53 29.7021 29.25C29.7021 38.916 36.6141 46.8 45.2001 46.8C53.7321 46.8 60.6441 38.916 60.6441 29.25C60.6441 19.53 53.7321 11.646 45.2001 11.646ZM45.2001 45.612C40.9341 45.612 37.5321 38.268 37.5321 29.25C37.5321 20.178 40.9341 12.834 45.2001 12.834C49.3581 12.834 52.7601 20.178 52.7601 29.25C52.7601 38.268 49.3581 45.612 45.2001 45.612ZM83.819 5.814C86.465 5.814 88.787 6.84 90.731 8.406C92.675 10.026 94.241 12.186 95.483 14.562L93.485 5.814L93.215 4.626H83.603C81.929 4.626 80.471 5.328 79.445 6.462C78.743 7.218 78.311 8.136 78.311 9.162V9.486C78.365 10.134 78.527 10.89 79.175 11.538C79.175 11.592 79.229 11.646 79.283 11.7C79.229 11.646 79.175 11.646 79.175 11.646H77.987C69.725 11.916 63.083 18.018 63.083 25.47C63.083 33.084 69.995 39.294 78.581 39.294H79.553L67.889 44.694H78.851C82.307 44.694 85.385 47.448 85.385 50.904V51.174C85.277 52.74 84.629 54.198 83.549 55.278C82.415 56.412 80.849 57.114 79.175 57.114H77.015C71.399 57.114 66.377 53.604 64.487 48.312L66.485 57.114L66.755 58.248H85.547C89.489 58.248 92.945 55.332 93.215 51.39V50.85C93.215 48.852 92.405 47.016 91.055 45.666C89.759 44.316 87.869 43.506 85.817 43.506H73.181L85.061 37.998L85.277 37.944L86.303 37.458C87.221 36.972 88.085 36.432 88.895 35.784C92.027 33.246 94.025 29.574 94.025 25.47C94.025 18.936 89.003 13.482 82.199 12.024C80.039 11.484 79.607 10.134 79.607 9.162C79.607 8.568 79.769 8.136 79.769 8.136C80.255 6.624 82.091 5.814 83.819 5.814ZM86.195 25.47C86.195 32.49 82.793 38.106 78.581 38.106C74.369 38.106 70.967 32.49 70.967 25.47C70.967 18.828 74.045 13.32 77.987 12.834H78.581C78.743 12.834 78.959 12.834 79.175 12.888C83.117 13.374 86.195 18.828 86.195 25.47ZM112.331 11.646C103.745 11.646 96.833 19.53 96.833 29.25C96.833 38.916 103.745 46.8 112.331 46.8C120.863 46.8 127.775 38.916 127.775 29.25C127.775 19.53 120.863 11.646 112.331 11.646ZM112.331 45.612C108.065 45.612 104.663 38.268 104.663 29.25C104.663 20.178 108.065 12.834 112.331 12.834C116.489 12.834 119.891 20.178 119.891 29.25C119.891 38.268 116.489 45.612 112.331 45.612Z" fill="#3A3A3A" fill-opacity="0.8"/>
</svg>
