<?xml version="1.0" encoding="UTF-8"?>
<svg id="_Слой_2" data-name="Слой 2" xmlns="http://www.w3.org/2000/svg" viewBox="0 0 250.75 64.58">
  <defs>
    <style>
      .cls-1 {
        fill: #2e3138;
      }

      .cls-2 {
        fill: #ff3584;
      }
    </style>
  </defs>
  <g id="_Слой_1-2" data-name="Слой 1">
    <g>
      <g>
        <line class="cls-1" x1="6.26" y1="54.2" x2="6.3" y2="54.24"/>
        <path class="cls-1" d="m45.47,37.45v13.53c0,1.8-1.46,3.27-3.27,3.27H8.53c-1.42,0-2.79-.57-3.79-1.57l-4.73-4.73h6.84l1.47,1.47h32.33v-10.39h-11.08c-4.1,0-6.16-4.96-3.26-7.86l8.72-8.72H10.32l-4.84-4.84h34.53c1.06,0,1.92.86,1.92,1.92v1.53c0,.88-.35,1.73-.98,2.35l-10.84,10.77h12.08c1.8,0,3.27,1.46,3.27,3.27Z"/>
        <path class="cls-1" d="m98.07,42.67v4.84h-25.38c-1.17,0-2.32-.26-3.37-.76l-13.88-6.63,2.42-4.19,14.36,6.74h25.86Z"/>
        <path class="cls-1" d="m144.6,20.81v33.36h-4.84v-31.74h-27.64v31.74h-4.84V20.81c0-1.77,1.44-3.21,3.21-3.21h30.9c1.77,0,3.21,1.44,3.21,3.21Z"/>
        <polygon class="cls-1" points="211.26 54.5 211.26 54.5 211.24 54.5 211.26 54.5"/>
        <path class="cls-1" d="m248.63,49.66h-5.3l-5.19-29.41c-.27-1.53-1.6-2.64-3.15-2.64l-19.48.06c-1.54,0-2.86,1.11-3.13,2.63l-4.78,26.91h4.96l4.37-24.77h16.7l4.8,27.22h-26.29l.43-2.45h-4.97l-1.3,7.28h38.9l-4.43,7.67,4.19,2.42,5.32-9.22c.33-.57.5-1.21.5-1.87v-1.71c0-1.17-.95-2.13-2.13-2.13Z"/>
        <path class="cls-1" d="m99.07,54.18h-5.58l-17.78-30.79-17.78,30.79h-5.59l20.65-35.76c1.2-2.09,4.22-2.09,5.42,0l20.65,35.76Z"/>
        <path class="cls-1" d="m197.37,42.67v4.84h-25.38c-1.17,0-2.32-.26-3.37-.76l-13.88-6.63,2.42-4.19,14.36,6.74h25.86Z"/>
        <path class="cls-1" d="m198.37,54.18h-5.58l-17.78-30.79-17.78,30.79h-5.59l20.65-35.76c1.2-2.09,4.22-2.09,5.42,0l20.65,35.76Z"/>
      </g>
      <polygon class="cls-2" points="36.7 8.27 8.77 4.14 36.7 0 36.7 8.27 36.7 8.27"/>
    </g>
  </g>
</svg>