<?xml version="1.0" encoding="UTF-8"?>
<svg id="_Слой_2" data-name="Слой 2" xmlns="http://www.w3.org/2000/svg" viewBox="0 0 180.05 27.12">
  <defs>
    <style>
      .cls-1, .cls-2 {
        fill: #2e3138;
      }

      .cls-2 {
        fill-rule: evenodd;
      }
    </style>
  </defs>
  <g id="_Слой_1-2" data-name="Слой 1">
    <g>
      <g>
        <path class="cls-1" d="m92.32,26.24h-7.58c-.11-.01-.23-.03-.34-.04-.76-.09-1.54-.11-2.28-.27-2.73-.57-4.53-2.18-5.28-4.9-.37-1.37-.41-2.77-.42-4.18-.01-2.21-.01-4.41,0-6.62,0-1.23.05-2.46.29-3.67.35-1.76,1.19-3.2,2.66-4.26,1.25-.9,2.69-1.29,4.21-1.33,2.67-.07,5.33-.09,8-.09,1.43,0,2.86,0,4.27.23,2.95.49,4.93,2.35,5.59,5.26.23,1.02.27,2.06.29,3.1,0,.32.03.64.04.96v6.34c-.02.3-.04.59-.04.89-.02,1.04-.06,2.08-.3,3.1-.66,2.71-2.31,4.44-5.03,5.12-1.03.25-2.09.3-3.15.32-.31,0-.62.03-.94.04Zm7.14-13.07s.02,0,.03,0c0-.93.03-1.87,0-2.8-.04-1.12-.07-2.25-.24-3.35-.28-1.79-1.33-3-3.11-3.46-.72-.19-1.47-.32-2.22-.35-1.75-.07-3.5-.08-5.25-.09-1.26,0-2.53,0-3.79.03-.92.02-1.85.06-2.75.29-1.48.39-2.51,1.27-3,2.74-.37,1.12-.46,2.28-.47,3.45-.02,2.68-.03,5.35,0,8.03,0,.8.09,1.62.25,2.41.4,1.98,1.59,3.23,3.6,3.59.83.15,1.67.23,2.51.24,2.4.04,4.81.06,7.21.03,1.1-.01,2.21-.08,3.3-.24,1.94-.28,3.24-1.51,3.64-3.39.16-.74.25-1.5.27-2.26.04-1.63.01-3.25.01-4.88Z"/>
        <path class="cls-1" d="m89.09,7.04c3.59,0,6.5,2.88,6.52,6.49.02,3.59-2.88,6.5-6.49,6.52-3.6.02-6.52-2.89-6.53-6.5,0-3.6,2.89-6.5,6.5-6.51Zm.02,2.29c-2.34,0-4.23,1.87-4.24,4.2,0,2.34,1.86,4.23,4.19,4.24,2.35.01,4.24-1.87,4.25-4.21,0-2.34-1.87-4.22-4.21-4.23Z"/>
        <path class="cls-1" d="m95.6,4.48c1.09,0,1.96.85,1.97,1.93.01,1.1-.85,1.99-1.95,1.99-1.08,0-1.97-.86-1.98-1.94-.01-1.1.86-1.98,1.95-1.99Z"/>
      </g>
      <g>
        <path class="cls-1" d="m155.27,10.22c2.79,1.74,5.47,3.41,8.15,5.08,1.11.69,2.23,1.36,3.32,2.08.63.41,1.19.41,1.83,0,3.66-2.3,7.33-4.58,10.99-6.86.13-.08.27-.16.46-.27.01.23.03.41.03.6,0,3.74,0,7.49,0,11.23,0,1.58-.9,2.46-2.49,2.46-6.6,0-13.2-.01-19.8.01-1.49,0-2.53-1.01-2.51-2.51.05-3.72.02-7.43.02-11.15,0-.2,0-.39,0-.68Z"/>
        <path class="cls-1" d="m179.82,10.1h-24.3c.16-.11.26-.19.36-.25,3.82-2.39,7.65-4.77,11.47-7.16.19-.12.34-.18.57-.04,3.85,2.41,7.71,4.82,11.57,7.22.09.05.17.11.33.23Z"/>
      </g>
      <g>
        <path class="cls-1" d="m12.87,0c.57,0,1.13,0,1.7,0,.32.04.65.07.97.12,3.04.47,5.67,1.74,7.81,3.99,1.89,1.99,3.11,4.32,3.58,7.04.08.49.14.98.2,1.46v1.7c-.02.08-.04.15-.05.23-.09,1.18-.33,2.32-.73,3.43-2.76,7.66-11.76,11.17-18.99,7.41-.12-.06-.31-.08-.44-.05-2.08.53-4.16,1.08-6.25,1.62-.22.06-.44.11-.68.16.03-.12.05-.21.08-.29.59-2.15,1.18-4.3,1.77-6.45.03-.12.01-.28-.04-.39C.28,17.2-.21,14.25.3,11.13,1.25,5.39,5.84,1.19,11.33.22c.51-.09,1.03-.14,1.54-.22ZM3.25,23.88c.13-.03.2-.04.26-.06,1.24-.32,2.48-.64,3.71-.97.18-.05.33-.03.49.07,2.48,1.49,5.15,2.01,8.01,1.47,6.11-1.17,10.06-6.94,8.95-13.05-1.04-5.71-6.55-9.75-12.32-9.05-3.19.39-5.78,1.85-7.69,4.42-1.86,2.5-2.59,5.32-2.13,8.42.24,1.61.84,3.07,1.72,4.43.1.16.12.29.07.46-.21.73-.41,1.46-.61,2.19-.15.54-.3,1.08-.46,1.67Z"/>
        <path class="cls-1" d="m17.23,19.84c-.95.04-1.74-.32-2.55-.6-2.28-.79-4.04-2.27-5.54-4.11-.72-.88-1.44-1.76-1.92-2.81-.5-1.1-.69-2.24-.17-3.38.23-.49.57-.92.9-1.36.18-.25.47-.37.79-.38.32-.01.64-.04.95.02.17.04.36.22.46.38.18.31.3.66.44.99.23.55.45,1.11.7,1.66.12.28.12.53-.06.77-.22.31-.44.62-.69.91-.38.45-.39.5-.09.99,1.08,1.76,2.55,3.04,4.47,3.81.4.16.55.13.83-.21.33-.39.65-.79.96-1.2.17-.23.37-.28.62-.21.09.03.19.05.28.09.84.37,1.68.75,2.52,1.11.25.11.36.28.36.56-.03,1.02-.36,1.85-1.29,2.39-.63.37-1.29.61-1.96.57Z"/>
      </g>
      <path id="Path-3" class="cls-2" d="m40.46,12.05c7.04-3.07,11.73-5.09,14.08-6.07,6.71-2.79,8.1-3.27,9.01-3.29.2,0,.65.05.94.28.24.2.31.47.34.65s.07.62.04.95c-.36,3.82-1.94,13.08-2.74,17.36-.34,1.81-1.01,2.42-1.65,2.48-1.4.13-2.47-.93-3.83-1.82-2.13-1.39-3.33-2.26-5.39-3.62-2.38-1.57-.84-2.43.52-3.85.36-.37,6.53-5.99,6.65-6.5.01-.06.03-.3-.11-.43s-.35-.08-.5-.05c-.21.05-3.61,2.29-10.19,6.73-.96.66-1.84.98-2.62.97-.86-.02-2.52-.49-3.75-.89-1.51-.49-2.71-.75-2.61-1.59.05-.43.65-.88,1.8-1.33Z"/>
      <path class="cls-1" d="m132.4,3.45c.23-.08.47-.23.69-.22,2.48.14,4.69,1.06,6.7,2.48.11.08.2.21.26.33,2.22,4.3,3.53,8.85,3.67,13.72,0,.34-.1.56-.33.8-2.01,2.07-4.48,3.06-7.32,3.25-.32.02-.54-.06-.74-.32-.43-.56-.88-1.1-1.38-1.71,1.73-.57,3.27-1.32,4.43-2.73-6.6,3.81-13.21,3.48-19.86.02.41.9,1.76,1.78,4.28,2.85-.53.65-1.04,1.3-1.57,1.93-.06.07-.2.11-.3.1-2.61-.11-4.95-.9-6.86-2.76-.55-.53-.79-1.1-.75-1.91.24-4.65,1.48-9.02,3.6-13.15.11-.22.3-.42.5-.56,1.93-1.33,4.05-2.17,6.39-2.38.25-.02.5.05.76.17-2.29.7-4.47,1.52-6.33,3.04,3.23-1.44,6.61-2.19,10.14-2.17,3.54.02,6.91.84,10.12,2.32-1.81-1.43-3.89-2.3-6.07-2.96-.01-.05-.02-.09-.03-.14Zm-6.08,11.58c0-1.51-1.14-2.75-2.58-2.77-1.49-.02-2.72,1.21-2.74,2.74-.02,1.5,1.18,2.76,2.65,2.77,1.48,0,2.66-1.2,2.67-2.73Zm4.23,0c0,1.52,1.19,2.74,2.67,2.73,1.46-.01,2.66-1.26,2.64-2.77-.01-1.49-1.22-2.74-2.63-2.73-1.5,0-2.69,1.23-2.68,2.78Z"/>
    </g>
  </g>
</svg>