<svg width="62" height="62" fill="none" xmlns="http://www.w3.org/2000/svg">
    <path d="M36.822 5.813 31 11.636l-5.823-5.825L0 31l25.177 25.188L31 50.362l5.822 5.825L62 31 36.822 5.812ZM25.177 52.35 3.835 31 25.177 9.647 46.521 31l-3.904 3.905-15.522-15.529-1.918-1.918-1.918 1.918-3.878 3.88L11.644 31l17.438 17.445-3.905 3.906Zm15.525-15.527-3.88 3.879-15.521-15.527 3.878-3.88 15.523 15.528Zm-7.786 11.621L15.478 31l3.905-3.906 15.522 15.528 1.918 1.917 1.918-1.917 9.7-9.703L50.355 31l-1.916-1.918-15.522-15.529 3.905-3.906L58.165 31 36.822 52.351l-3.907-3.906Z" fill="#343434"/>
</svg>
